# Blender 3.5.1
# www.blender.org
mtllib assets/models/Track_Materials.mtl
o Panel_2
v 1.000000 0.000000 -4.000000
v 1.000000 0.000000 -12.000000
v 5.000000 0.000000 -4.000000
v 9.000000 0.000000 -4.000000
v 5.000000 0.000000 -12.000000
v 9.000000 0.000000 -12.000000
vn -0.0000 1.0000 -0.0000
vt 0.000000 0.000000
vt 0.000000 1.000000
vt 0.000000 0.000000
vt 1.000000 0.000000
vt 1.000000 0.000000
vt 0.000000 1.000000
vt 1.000000 1.000000
vt 1.000000 1.000000
s 0
usemtl Panel_2
f 3/3/1 4/5/1 6/8/1 5/6/1
f 1/1/1 3/4/1 5/7/1 2/2/1
o Arrows_2
v -1.000000 0.000000 -4.000000
v 1.000000 0.000000 -4.000000
v -1.000000 0.000000 -12.000000
v 1.000000 0.000000 -12.000000
v 0.000000 0.200000 -4.000000
v 0.000000 0.200000 -12.000000
v -1.000000 0.000000 4.000000
v 1.000000 0.000000 4.000000
v -1.000000 0.000000 -4.000000
v 1.000000 0.000000 -4.000000
v 0.000000 0.200000 4.000000
v 0.000000 0.200000 -4.000000
vn -0.0000 1.0000 -0.0000
vn 0.1961 0.9806 -0.0000
vn -0.1961 0.9806 -0.0000
vt 0.000000 -0.250000
vt 1.000000 -0.250000
vt 0.000000 1.750000
vt 1.000000 1.750000
vt 0.500000 -0.250000
vt 0.500000 1.750000
vt 0.000000 -0.250000
vt 1.000000 -0.250000
vt 0.000000 1.750000
vt 1.000000 1.750000
vt 0.500000 -0.250000
vt 0.500000 1.750000
s 1
usemtl Arrows_2
f 11/13/2 8/10/3 10/12/3 12/14/2
f 7/9/4 11/13/2 12/14/2 9/11/4
f 17/19/2 14/16/3 16/18/3 18/20/2
f 13/15/4 17/19/2 18/20/2 15/17/4
o Arrows_1
v 9.000000 0.000000 -4.000000
v 11.000000 0.000000 -4.000000
v 9.000000 0.000000 -12.000000
v 11.000000 0.000000 -12.000000
v 10.000000 0.200000 -4.000000
v 10.000000 0.200000 -12.000000
v 9.000000 0.000000 4.000000
v 11.000000 0.000000 4.000000
v 9.000000 0.000000 -4.000000
v 11.000000 0.000000 -4.000000
v 10.000000 0.200000 4.000000
v 10.000000 0.200000 -4.000000
vn -0.0000 1.0000 -0.0000
vn 0.1961 0.9806 -0.0000
vn -0.1961 0.9806 -0.0000
vt 0.000000 -0.250000
vt 1.000000 -0.250000
vt 0.000000 1.750000
vt 1.000000 1.750000
vt 0.500000 -0.250000
vt 0.500000 1.750000
vt 0.000000 -0.250000
vt 1.000000 -0.250000
vt 0.000000 1.750000
vt 1.000000 1.750000
vt 0.500000 -0.250000
vt 0.500000 1.750000
s 1
usemtl Arrows_1
f 23/25/5 20/22/6 22/24/6 24/26/5
f 19/21/7 23/25/5 24/26/5 21/23/7
f 29/31/5 26/28/6 28/30/6 30/32/5
f 25/27/7 29/31/5 30/32/5 27/29/7
o Panel_1
v 1.000000 0.000000 4.000000
v 1.000000 0.000000 -4.000000
v 5.000000 0.000000 4.000000
v 9.000000 0.000000 4.000000
v 5.000000 0.000000 -4.000000
v 9.000000 0.000000 -4.000000
vn -0.0000 1.0000 -0.0000
vt 0.000000 0.000000
vt 0.000000 1.000000
vt 0.000000 0.000000
vt 1.000000 0.000000
vt 1.000000 0.000000
vt 0.000000 1.000000
vt 1.000000 1.000000
vt 1.000000 1.000000
s 0
usemtl Panel_1
f 33/35/8 34/37/8 36/40/8 35/38/8
f 31/33/8 33/36/8 35/39/8 32/34/8
